<svg height="2500" viewBox="0.85 3.136 1020.865 1020.864" width="2500" xmlns="http://www.w3.org/2000/svg"><path d="M.85 3.136h1020.865V1024H.851z" fill="#f47e8a"/><g fill="#fcfcfc"><path d="M340.62 652.5c0-.137-.044-.203-.044-.343-1.326-49.318-8.846-150.732 19.724-236.97 49.85-150.48 169.723-187.643 169.723-187.643s-67.63-21.758-155.852-27.587c-70.03-4.616-164.354 10.24-164.354 10.24S185.36 470.546 335.43 646.858c1.49 1.758 3.294 3.679 5.19 5.644z"/><path d="M357.624 664.795s229.06 35.611 365.073-99.74c136.011-135.348 99.306-354.857 99.306-354.857s-240.668-31.61-364.156 91.285C334.36 424.377 357.624 664.795 357.624 664.795zm1.13 6.493c.187.17.355.349.54.52.632.077 1.006.096 1.006.096-5.507-5.506-13.393-12.844-19.7-19.402"/><path d="M380.047 691.65h.502c-.983-.846-2.01-1.599-2.994-2.448-7.427-6.373-10.216-10.215-17.255-17.3 0 0-.01.327.012.89m472.23-31.354c-6.945-72.794-27.495-147.168-27.495-147.168s-40.66 107.17-168.266 157.887c-92.865 36.935-203.76 40.82-256.235 39.496 175.78 148.925 441.48 130.733 441.48 130.733s17.693-105.73 10.516-180.948z"/></g></svg>