<?xml version="1.0" encoding="utf-8"?>
<!-- Generator: Adobe Illustrator 19.0.0, SVG Export Plug-In . SVG Version: 6.00 Build 0)  -->
<svg version="1.1" id="图层_1" xmlns="http://www.w3.org/2000/svg" xmlns:xlink="http://www.w3.org/1999/xlink" x="0px" y="0px"
	 viewBox="-7014 4234.9 144.9 34" style="enable-background:new -7014 4234.9 144.9 34;" xml:space="preserve">
<style type="text/css">
	.st0{fill:#00B4A5;}
	.st1{fill:#393A3A;}
</style>
<g>
	<path class="st0" d="M-6980.3,4255.5c-1.3,0.2-2.5,0.5-3.6,1.1c0.7-1.4,1.2-3,1.2-4.7s-0.4-3.3-1.2-4.7c1.1,0.6,2.3,0.9,3.6,1.1
		c-0.7-3-2.1-5.8-4.1-8c-1,0.5-2,1-2.9,1.8c0.7-0.9,1.3-1.9,1.8-2.9c-2.3-2-5-3.5-8.1-4.1c0.2,1.3,0.5,2.5,1.1,3.6
		c-1.4-0.7-3-1.2-4.7-1.2s-3.3,0.4-4.7,1.2c0.6-1.1,0.9-2.3,1.1-3.6c-3,0.7-5.8,2.1-8,4.1c0.5,1,1,2,1.8,2.9
		c-0.9-0.7-1.9-1.3-2.9-1.8c-2,2.2-3.5,5-4.1,8c1.3-0.2,2.5-0.5,3.6-1.1c-0.7,1.4-1.2,3-1.2,4.7s0.4,3.3,1.2,4.7
		c-1.1-0.6-2.3-0.9-3.6-1.1c0.7,3.1,2.1,5.9,4.1,8.1c1-0.5,2-1,2.9-1.8c-0.7,0.9-1.3,1.9-1.8,2.9c2.2,2,5,3.5,8,4.1
		c-0.2-1.3-0.5-2.5-1.1-3.6c1.4,0.7,3,1.2,4.7,1.2s3.3-0.4,4.7-1.2c-0.6,1.1-0.9,2.3-1.1,3.6c3.1-0.7,5.9-2.1,8.1-4.1
		c-0.5-1-1-2-1.8-2.9c0.9,0.7,1.9,1.3,2.9,1.8C-6982.4,4261.4-6980.9,4258.6-6980.3,4255.5z M-6997.2,4257.1c-3.1,0-5.9,1.1-8.1,2.9
		c1.8-2.2,2.9-5,2.9-8.1s-1.1-5.9-2.9-8.1c2.2,1.8,5,2.9,8.1,2.9s5.9-1.1,8.1-2.9c-1.8,2.2-2.9,5-2.9,8.1s1.1,5.9,2.9,8.1
		C-6991.3,4258.2-6994.1,4257.1-6997.2,4257.1z"/>
	<g>
		<g>
			<g>
				<path class="st1" d="M-6919.7,4263.6v-2.6c0.4,0,0.8-0.3,0.8-0.7v-3.4h2.6v3.4C-6916.2,4262.1-6917.8,4263.6-6919.7,4263.6z"/>
			</g>
			<g>
				<path class="st1" d="M-6906.9,4263.6c-2,0-3.6-1.6-3.6-3.5v-3.2h2.6v3.2c0,0.5,0.4,0.9,1,0.9s1-0.4,1-0.9v-13.6h2.6v13.6
					C-6903.3,4262.1-6904.9,4263.6-6906.9,4263.6z"/>
			</g>
			<g>
				<rect x="-6906" y="4245.6" class="st1" width="10.5" height="2.3"/>
			</g>
			<g>
				<rect x="-6914.7" y="4244.9" class="st1" width="2.6" height="2.2"/>
			</g>
			<g>
				<g>
					<rect x="-6918.3" y="4248.1" class="st1" width="2.6" height="3.1"/>
				</g>
				<g>
					<rect x="-6911.1" y="4248.1" class="st1" width="2.6" height="3.1"/>
				</g>
			</g>
			<g>
				<rect x="-6914.7" y="4252.4" class="st1" width="2.6" height="11.1"/>
			</g>
			<g>
				<rect x="-6899.9" y="4252.4" class="st1" width="2.6" height="11.1"/>
			</g>
			<g>
				<g>
					<g>
						<rect x="-6913.3" y="4240.2" class="st1" width="2.6" height="4.4"/>
					</g>
					<g>
						<rect x="-6904.5" y="4240.2" class="st1" width="2.6" height="4.4"/>
					</g>
				</g>
				<g>
					<rect x="-6920.1" y="4241.3" class="st1" width="25.1" height="2.3"/>
				</g>
			</g>
			<g>
				<g>
					<rect x="-6893" y="4241.3" class="st1" width="23.6" height="2.3"/>
				</g>
			</g>
			<g>
				<rect x="-6919.6" y="4246.1" class="st1" width="12.3" height="2.3"/>
			</g>
			<g>
				<rect x="-6920.1" y="4250.8" class="st1" width="13.4" height="2.3"/>
			</g>
			<g>
				<rect x="-6904.8" y="4250.8" class="st1" width="9.8" height="2.3"/>
			</g>
			<g>
				<rect x="-6919.7" y="4254.2" class="st1" width="12.5" height="2.3"/>
			</g>
			<g>
				<path class="st1" d="M-6944.9,4263.6v-3c4.5,0,9.9-8.2,9.9-11.2v-7.8h3v7.8C-6931.9,4253.6-6938.2,4263.6-6944.9,4263.6z"/>
			</g>
			<g>
				<path class="st1" d="M-6922,4263.6c-6.7,0-13-10-13-14.2v-7.8h3v7.8c0,3,5.5,11.2,9.9,11.2v3H-6922z"/>
			</g>
			<g>
				<path class="st1" d="M-6883,4263.5h-4.6v-2.6h4.6c0.6,0,1-0.4,1-1v-19.6h2.6v19.6C-6879.4,4261.9-6881,4263.5-6883,4263.5z"/>
			</g>
			<g>
				<g>
					<rect x="-6890.9" y="4244.3" class="st1" width="19.5" height="2.3"/>
				</g>
			</g>
			<g>
				<g>
					<rect x="-6891.8" y="4250.9" class="st1" width="19" height="2.3"/>
				</g>
			</g>
			<g>
				<g>
					<rect x="-6890.9" y="4247.7" class="st1" width="19.5" height="2.3"/>
				</g>
			</g>
			<g>
				<g>
					<g>
						<rect x="-6891.1" y="4244.3" class="st1" width="2.6" height="5.6"/>
					</g>
				</g>
				<g>
					<g>
						<rect x="-6873.7" y="4244.3" class="st1" width="2.6" height="5.6"/>
					</g>
				</g>
			</g>
			<g>
				<g>
					<path class="st1" d="M-6873.4,4260.9L-6873.4,4260.9v-9.9h2.6v7.3C-6870.7,4259.7-6871.9,4260.9-6873.4,4260.9z"/>
				</g>
			</g>
			<g>
				<g>
					<rect x="-6893" y="4254.1" class="st1" width="23.6" height="2.3"/>
				</g>
			</g>
			<g>
				<g>
					<rect x="-6891.8" y="4257.3" class="st1" width="19" height="2.3"/>
				</g>
			</g>
		</g>
		<g>
			<path class="st1" d="M-6970.9,4263.6v-2.6c0.4,0,0.8-0.3,0.8-0.7v-3.4h2.6v3.4C-6967.5,4262.1-6969.1,4263.6-6970.9,4263.6z"/>
		</g>
		<g>
			<path class="st1" d="M-6958.2,4263.6c-2,0-3.6-1.6-3.6-3.5v-3.2h2.6v3.2c0,0.5,0.4,0.9,1,0.9s1-0.4,1-0.9v-13.6h2.6v13.6
				C-6954.6,4262.1-6956.2,4263.6-6958.2,4263.6z"/>
		</g>
		<g>
			<rect x="-6957.2" y="4245.6" class="st1" width="10.5" height="2.3"/>
		</g>
		<g>
			<rect x="-6966" y="4244.9" class="st1" width="2.6" height="2.2"/>
		</g>
		<g>
			<g>
				<rect x="-6969.6" y="4248.1" class="st1" width="2.6" height="3.1"/>
			</g>
			<g>
				<rect x="-6962.3" y="4248.1" class="st1" width="2.6" height="3.1"/>
			</g>
		</g>
		<g>
			<rect x="-6966" y="4252.4" class="st1" width="2.6" height="11.1"/>
		</g>
		<g>
			<rect x="-6951.2" y="4252.4" class="st1" width="2.6" height="11.1"/>
		</g>
		<g>
			<g>
				<g>
					<rect x="-6964.5" y="4240.2" class="st1" width="2.6" height="4.4"/>
				</g>
				<g>
					<rect x="-6955.8" y="4240.2" class="st1" width="2.6" height="4.4"/>
				</g>
			</g>
			<g>
				<rect x="-6971.4" y="4241.3" class="st1" width="25.1" height="2.3"/>
			</g>
		</g>
		<g>
			<rect x="-6970.8" y="4246.1" class="st1" width="12.3" height="2.3"/>
		</g>
		<g>
			<rect x="-6971.4" y="4250.8" class="st1" width="13.4" height="2.3"/>
		</g>
		<g>
			<rect x="-6956.1" y="4250.8" class="st1" width="9.8" height="2.3"/>
		</g>
		<g>
			<rect x="-6970.9" y="4254.2" class="st1" width="12.5" height="2.3"/>
		</g>
	</g>
</g>
</svg>
